<?xml version="1.0" encoding="utf-8"?>
<!-- Generator: Adobe Illustrator 19.0.0, SVG Export Plug-In . SVG Version: 6.00 Build 0)  -->
<svg version="1.1" id="Layer_1" xmlns="http://www.w3.org/2000/svg" xmlns:xlink="http://www.w3.org/1999/xlink" x="0px" y="0px"
	 viewBox="-344 244.7 270 73.3" style="enable-background:new -344 244.7 270 73.3;" xml:space="preserve">
<style type="text/css">
	.st0{fill:#D0D2D3;}
	.st1{fill:#231F20;}
</style>
<g id="XMLID_72_">
	<path id="XMLID_73_" class="st0" d="M-309,279.5l4.5-6.4c2.7,2.8,7,5.3,12.3,5.3c4.6,0,6.7-2,6.7-4.3c0-6.7-22.3-2-22.3-16.6
		c0-6.4,5.6-11.8,14.7-11.8c6.1,0,11.3,1.9,15.1,5.4l-4.6,6.1c-3.1-2.9-7.3-4.2-11.3-4.2c-3.5,0-5.5,1.5-5.5,3.8
		c0,6.1,22.2,2,22.2,16.4c0,7.1-5.1,12.4-15.5,12.4C-300,285.7-305.3,283.2-309,279.5z"/>
	<path id="XMLID_75_" class="st0" d="M-268.3,285v-38.7h18.1c8.4,0,13,5.7,13,12.5c0,6.7-4.6,12.4-13,12.4h-9.9V285H-268.3z
		 M-245.7,258.7c0-3.2-2.5-5.2-5.7-5.2h-8.7v10.4h8.7C-248.2,263.9-245.7,261.9-245.7,258.7z"/>
	<path id="XMLID_78_" class="st0" d="M-228.9,285v-38.7h8.2V285H-228.9z"/>
	<path id="XMLID_80_" class="st0" d="M-209.8,285v-38.7h27.4v7.2h-19.1v8.1h18.7v7.2h-18.7v8.8h19.1v7.2h-27.4L-209.8,285
		L-209.8,285z"/>
	<path id="XMLID_82_" class="st0" d="M-175.5,279.5l4.5-6.4c2.7,2.8,7,5.3,12.3,5.3c4.6,0,6.7-2,6.7-4.3c0-6.7-22.3-2-22.3-16.6
		c0-6.4,5.6-11.8,14.7-11.8c6.1,0,11.3,1.9,15.1,5.4l-4.6,6.1c-3.1-2.9-7.3-4.2-11.3-4.2c-3.5,0-5.5,1.5-5.5,3.8
		c0,6.1,22.2,2,22.2,16.4c0,7.1-5.1,12.4-15.5,12.4C-166.5,285.7-171.8,283.2-175.5,279.5z"/>
	<path id="XMLID_84_" class="st0" d="M-111,285c-0.8-0.8-1.8-1.7-2.9-2.9c-2.9,2.2-6.4,3.6-10.6,3.6c-7.1,0-12.8-3.7-12.8-11.2
		c0-5.9,3.9-8.9,8.4-11.2c-1.6-2.8-2.6-5.7-2.6-8.3c0-5.2,4.6-9.3,11-9.3c5.5,0,10.1,3,10.1,8.2c0,5.9-4.7,8.4-9.5,10.6
		c1.2,1.6,2.3,3,3.3,4.2c1.1,1.4,2.2,2.7,3.3,4c1.6-2.6,2.8-5.3,3.5-7.5l5.9,2.7c-1.4,3.1-3.1,6.4-5.4,9.3c2.3,2.6,4.8,5.1,7.5,7.8
		C-101.8,285-111,285-111,285z M-117.9,277.9c-1.7-1.9-3.4-3.8-4.3-4.9c-1.3-1.6-2.7-3.3-3.9-5.1c-2,1.5-3.4,3.2-3.4,5.9
		c0,3.8,2.8,6.1,6,6.1C-121.5,279.9-119.6,279.1-117.9,277.9z M-122.5,260.4c3.2-1.6,5.8-3.2,5.8-6.1c0-2-1.5-3.2-3.4-3.2
		c-2.3,0-4.1,1.7-4.1,4.1C-124.2,256.7-123.5,258.5-122.5,260.4z"/>
</g>
<g id="XMLID_10_">
	<path id="XMLID_11_" class="st1" d="M-339.5,310l10-4.7c-0.1,2,1.5,3.8,6.4,3.8c4.2,0,7.7-1.5,9.5-3.1c5-4.6-17.8-1.4-6.2-10.6
		c4.5-3.6,12.2-6.3,18.9-6.3c4.6,0,7.4,0.9,8.3,2.8l-7.1,3.4c-0.7-1.6-3.1-2.4-6.2-2.4c-2.7,0-5.2,0.8-6.8,2.1
		c-4.3,3.6,16.4,1.1,7,10.4c-5.3,5.2-14.6,9.5-24.5,9.5C-337.2,314.9-339.8,312.9-339.5,310z"/>
	<path id="XMLID_13_" class="st1" d="M-284.2,314.4l9-12.1h-15.6l-10.9,12.1h-7.8l24.3-25h6.1l-7.6,8.4h14.9l6.3-8.4h6.2l-17,25
		H-284.2z"/>
	<path id="XMLID_15_" class="st1" d="M-243.4,314.4l-0.2-5.2h-15.1l-5.2,5.2h-8.9l27.4-25.1h7.7l3.3,25.1H-243.4z M-243.7,293.7
		l-10.2,10.3h10.5L-243.7,293.7z"/>
	<path id="XMLID_18_" class="st1" d="M-231,314.4l7.1-25.1h11.4c9.1,0,15.4,4.1,15.6,11c0.1,8.1-7.8,14.1-19.4,14.1H-231z
		 M-204,300.3c0.2-4.2-2.9-7.2-9-7.2h-5.5l-3.3,15.5h6.4C-208.6,308.7-204.3,304.7-204,300.3z"/>
	<path id="XMLID_21_" class="st1" d="M-193.6,300.4c-0.3-6.9,5.8-11.4,14.5-11.4s16.8,4.4,19.5,11.4c3.1,8.1-2.5,14.7-13.8,14.7
		C-184.6,315-193.2,308.4-193.6,300.4z M-166.7,300.4c-1.4-4.4-6-7.5-11.5-7.5c-5.6,0-8.8,3.1-8.3,7.5c0.6,4.8,5.3,8.8,11.9,8.9
		C-168,309.2-165.1,305.2-166.7,300.4z"/>
	<path id="XMLID_24_" class="st1" d="M-121,314.5l-18.1-18.6l5,18.6h-8.4l-20.7-25.2h6.9l14.1,16.9l-3.4-16.9h4.8l17.5,16.9
		l-6.9-16.9h6.9l10.7,25.2H-121z"/>
	<path id="XMLID_26_" class="st1" d="M-104.5,310.2v-4.8c4.3,2.1,9.9,3.9,14.8,3.9c4.2,0,4.6-1.5,2.9-3.2
		c-4.9-4.6-21.2-1.4-29.2-10.7c-3.1-3.6-1.3-6.4,5.5-6.4c4.6,0,9.5,0.9,14.5,2.8l0.1,3.4c-4.3-1.6-8.3-2.4-11.4-2.4
		c-2.7,0-3.5,0.8-2.3,2.2c3.4,3.6,19.1,1.2,29.6,10.5c5.9,5.3,5.8,9.6-4.2,9.6C-91.5,315.1-98.5,313.1-104.5,310.2z"/>
</g>
</svg>
